<svg xmlns="http://www.w3.org/2000/svg" xmlns:svg="http://www.w3.org/2000/svg" id="svg815" width="72" height="80" version="1.1" viewBox="0 0 72 80" xml:space="preserve"><metadata id="metadata821"/><defs id="defs819"><clipPath id="clipPath831" clipPathUnits="userSpaceOnUse"><path id="path829" d="M 0,60 H 54 V 0 H 0 Z"/></clipPath><clipPath id="clipPath843" clipPathUnits="userSpaceOnUse"><path id="path841" d="M 0,60 H 54 V 0 H 0 Z"/></clipPath><clipPath id="clipPath855" clipPathUnits="userSpaceOnUse"><path id="path853" d="M 0,60 H 54 V 0 H 0 Z"/></clipPath><clipPath id="clipPath867" clipPathUnits="userSpaceOnUse"><path id="path865" d="M 0,60 H 54 V 0 H 0 Z"/></clipPath></defs><g id="g823" transform="matrix(1.3333333,0,0,-1.3333333,0,80)"><g id="right"><g id="g827" clip-path="url(#clipPath831)"><g id="g833" transform="translate(30,48)"><path id="path835" fill="#ff3c28" fill-opacity="1" fill-rule="nonzero" stroke="none" d="m 0,0 v -48 c 13.255,0 24,10.745 24,24 C 24,-10.745 13.255,0 0,0 M 3,-3.214 C 13.163,-4.674 21,-13.439 21,-24 21,-34.561 13.163,-43.326 3,-44.786 v 41.572"/></g></g></g><g id="left"><g id="g839" clip-path="url(#clipPath843)"><g id="g845" transform="translate(24,60)"><path id="path847" fill="#0ab9e6" fill-opacity="1" fill-rule="nonzero" stroke="none" d="m 0,0 c -13.255,0 -24,-10.745 -24,-24 0,-13.255 10.745,-24 24,-24 z m -3,-3.214 v -41.572 c -10.163,1.46 -18,10.225 -18,20.786 0,10.561 7.837,19.326 18,20.786"/></g></g></g></g></svg>